<svg width="512" height="512" viewBox="0 0 512 512" fill="none" xmlns="http://www.w3.org/2000/svg">
<path d="M502.6 278.6L374.6 406.6C362.1 419.1 341.85 419.1 329.35 406.6C316.85 394.1 316.85 373.85 329.35 361.35L402.8 288H192C174.3 288 160 273.7 160 256C160 238.3 174.31 224 192 224H402.8L329.42 150.62C316.92 138.12 316.92 117.87 329.42 105.37C341.91 92.88 362.16 92.86 374.67 105.37L502.67 233.37C515.1 245.9 515.1 266.1 502.6 278.6Z" fill="white"/>
<path opacity="0.4" d="M160 416H96C78.33 416 64 401.67 64 384V128C64 110.33 78.33 96 96 96H160C177.67 96 192 81.67 192 64C192 46.33 177.7 32 160 32H96C42.98 32 0 74.98 0 128V384C0 437.02 42.98 480 96 480H160C177.67 480 192 465.67 192 448C192 430.33 177.7 416 160 416Z" fill="white"/>
</svg>
