<svg width="576" height="512" viewBox="0 0 576 512" fill="none" xmlns="http://www.w3.org/2000/svg">
<path d="M176 256C211.35 256 240 227.35 240 192C240 156.65 211.35 128 176 128C140.65 128 112 156.65 112 192C112 227.35 140.7 256 176 256ZM208 288H144C99.82 288 64 323.8 64 368C64 376.8 71.16 384 80 384H272C280.836 384 288 376.836 288 368C288 323.8 252.2 288 208 288Z" fill="white"/>
<path opacity="0.4" d="M512 32H64C28.65 32 0 60.65 0 96V416C0 451.35 28.65 480 64 480H512C547.35 480 576 451.35 576 416V96C576 60.65 547.3 32 512 32ZM176 128C211.35 128 240 156.65 240 192C240 227.35 211.35 256 176 256C140.65 256 112 227.35 112 192C112 156.65 140.7 128 176 128ZM272 384H80C71.16 384 64 376.8 64 368C64 323.8 99.82 288 144 288H208C252.18 288 288 323.82 288 368C288 376.8 280.8 384 272 384ZM496 320H368C359.2 320 352 312.8 352 304C352 295.2 359.2 288 368 288H496C504.8 288 512 295.2 512 304C512 312.8 504.8 320 496 320ZM496 256H368C359.2 256 352 248.8 352 240C352 231.2 359.2 224 368 224H496C504.8 224 512 231.2 512 240C512 248.8 504.8 256 496 256ZM496 192H368C359.2 192 352 184.8 352 176C352 167.2 359.2 160 368 160H496C504.8 160 512 167.2 512 176C512 184.8 504.8 192 496 192Z" fill="white"/>
</svg>
