<svg width="448" height="512" viewBox="0 0 448 512" fill="none" xmlns="http://www.w3.org/2000/svg">
<g clip-path="url(#clip0_5_9)">
<path d="M284.2 0C296.3 0 307.4 6.848 312.8 17.69L320 32H416C433.7 32 448 46.33 448 64C448 81.67 433.7 96 416 96H32C14.33 96 0 81.67 0 64C0 46.33 14.33 32 32 32H128L135.2 17.69C140.6 6.848 151.7 0 163.8 0H284.2Z" fill="#2E333F"/>
<path opacity="0.4" d="M32 96H416L394.6 466.8C393.1 492.2 372.1 512 346.7 512H101.3C75.87 512 54.86 492.2 53.39 466.8L32 96Z" fill="#2E333F"/>
</g>
<defs>
<clipPath id="clip0_5_9">
<rect width="448" height="512" fill="white"/>
</clipPath>
</defs>
</svg>
