<svg width="448" height="512" viewBox="0 0 448 512" fill="none" xmlns="http://www.w3.org/2000/svg">
<g clip-path="url(#clip0_7_26)">
<path d="M224 48C188.7 48 160 76.65 160 112V232C160 245.3 149.3 256 136 256C122.7 256 112 245.3 112 232V112C112 50.14 162.1 0 224 0C285.9 0 336 50.14 336 112V232C336 245.3 325.3 256 312 256C298.7 256 288 245.3 288 232V112C288 76.65 259.3 48 224 48Z" fill="white"/>
<path opacity="0.4" d="M288 232C288 245.3 298.7 256 312 256C325.3 256 336 245.3 336 232V160H400C426.5 160 448 181.5 448 208V416C448 469 405 512 352 512H96C42.98 512 0 469 0 416V208C0 181.5 21.49 160 48 160H112V232C112 245.3 122.7 256 136 256C149.3 256 160 245.3 160 232V160H288V232Z" fill="white"/>
</g>
<defs>
<clipPath id="clip0_7_26">
<rect width="448" height="512" fill="white"/>
</clipPath>
</defs>
</svg>
