<svg width="512" height="512" viewBox="0 0 512 512" fill="none" xmlns="http://www.w3.org/2000/svg">
<g clip-path="url(#clip0_7_17)">
<path d="M165.9 74.6C163.1 71.6 158.5 71.2 155.2 73.6C151.9 76 151 80.6 153.1 84.1L210.5 179.7L63.3 192C59.2 192.3 56 195.8 56 200C56 204.2 59.2 207.6 63.3 208L255.3 224C255.7 224 256.2 224 256.6 224L448.6 208C452.7 207.7 455.9 204.2 455.9 200C455.9 195.8 452.7 192.4 448.6 192L301.5 179.8L358.9 84.2C361 80.7 360.1 76.1 356.8 73.7C353.5 71.3 348.9 71.7 346.1 74.7L256 172.2L165.9 74.6Z" fill="white"/>
<path opacity="0.4" d="M116.7 33.8C121.2 27.7 128.4 24 136 24H376C383.6 24 390.8 27.6 395.3 33.8L507.3 185.8C514.1 195 513.4 207.7 505.8 216.2L273.8 472.2C269.2 477.2 262.8 480.1 256 480.1C249.2 480.1 242.8 477.2 238.2 472.2L6.19989 216.2C-1.50011 207.7 -2.10011 195 4.69989 185.8L116.7 33.8V33.8ZM155.2 73.6C151.9 76.1 151 80.6 153.1 84.1L210.5 179.7L63.2999 192C59.1999 192.3 55.9999 195.8 55.9999 200C55.9999 204.2 59.1999 207.6 63.2999 208L255.3 224C255.7 224 256.2 224 256.6 224L448.6 208C452.7 207.7 455.9 204.2 455.9 200C455.9 195.8 452.7 192.4 448.6 192L301.5 179.8L358.9 84.2C361 80.7 360.1 76.1 356.8 73.7C353.5 71.3 348.9 71.7 346.1 74.7L256 172.2L165.9 74.6C163.1 71.6 158.5 71.2 155.2 73.6V73.6Z" fill="white"/>
</g>
<defs>
<clipPath id="clip0_7_17">
<rect width="512" height="512" fill="white"/>
</clipPath>
</defs>
</svg>
