<svg width="512" height="512" viewBox="0 0 512 512" fill="none" xmlns="http://www.w3.org/2000/svg">
<path d="M376.1 304.1L296.1 384.1C286.725 393.475 271.54 393.475 262.16 384.1C258.3 380.3 256 374.2 256 368C256 361.8 258.344 355.72 263.031 351.03L302.1 312H152C138.8 312 128 301.3 128 288C128 274.7 138.75 264 152 264H302.1L263.07 224.97C253.695 215.595 253.695 200.41 263.07 191.03C272.445 181.65 287.63 181.655 297.01 191.03L377.01 271.03C386.3 280.4 386.3 295.6 376.1 304.1Z" fill="white"/>
<path opacity="0.4" d="M464 96H384V48C384 21.5 362.5 0 336 0H176C149.5 0 128 21.5 128 48V96H48C21.5 96 0 117.5 0 144V432C0 458.5 21.5 480 48 480H464C490.5 480 512 458.5 512 432V144C512 117.5 490.5 96 464 96ZM176 48H336V96H176V48ZM376.1 304.1L296.1 384.1C286.725 393.475 271.54 393.475 262.16 384.1C258.3 380.3 256 374.2 256 368C256 361.8 258.344 355.72 263.031 351.03L302.1 312H152C138.8 312 128 301.3 128 288C128 274.7 138.75 264 152 264H302.1L263.07 224.97C253.695 215.595 253.695 200.41 263.07 191.03C272.445 181.65 287.63 181.655 297.01 191.03L377.01 271.03C386.3 280.4 386.3 295.6 376.1 304.1Z" fill="white"/>
</svg>
