<svg width="512" height="512" viewBox="0 0 512 512" fill="none" xmlns="http://www.w3.org/2000/svg">
<path d="M256 64C110.1 64 0 125.9 0 208V306.13C0 384.5 114.6 448 256 448C397.4 448 512 384.48 512 306.1V208C512 125.9 401.9 64 256 64ZM256 288C149.1 288 64 252.2 64 208C64 163.8 149.1 128 256 128C361.1 128 448 163.82 448 208C448 252.18 361.1 288 256 288Z" fill="white"/>
<path opacity="0.4" d="M64 208C64 163.8 149.1 128 256 128C361.1 128 448 163.82 448 208C448 229.81 427.05 249.57 393.1 264C358.3 249.2 309.7 240 256 240C202.3 240 153.8 249.2 118.9 264C85 249.6 64 229.8 64 208Z" fill="white"/>
</svg>
